<?xml version="1.0" encoding="iso-8859-1"?>
<!-- Uploaded to: SVG Repo, www.svgrepo.com, Generator: SVG Repo Mixer Tools -->
<!DOCTYPE svg PUBLIC "-//W3C//DTD SVG 1.1//EN" "http://www.w3.org/Graphics/SVG/1.1/DTD/svg11.dtd">
<svg fill="#000000" height="800px" width="800px" version="1.1" id="Capa_1" xmlns="http://www.w3.org/2000/svg" xmlns:xlink="http://www.w3.org/1999/xlink" 
	 viewBox="0 0 465 465" xml:space="preserve">
<g>
	<path d="M460.827,450.786v-11.401c0-3-1.788-5.712-4.546-6.894l-53.477-22.919c-10.29-62.679-40.644-117.445-84.418-149.685
		c-1.993-17.768-17.093-31.623-35.364-31.623c-17.072,0-31.378,12.07-34.831,28.125h-31.384
		c-3.453-16.055-17.759-28.125-34.831-28.125c-18.271,0-33.371,13.855-35.363,31.623c-43.774,32.239-74.128,87.006-84.418,149.685
		L8.718,432.491c-2.758,1.182-4.546,3.894-4.546,6.894v11.401C1.702,452.013,0,454.554,0,457.5c0,4.143,3.358,7.5,7.5,7.5h450
		c4.143,0,7.5-3.357,7.5-7.5C465,454.554,463.298,452.012,460.827,450.786z M445.827,444.33V450h-39.245
		c-0.185-7.78-0.669-15.493-1.452-23.111L445.827,444.33z M156.343,271.39h25.634c4.142,0,7.5-3.357,7.5-7.5s-3.358-7.5-7.5-7.5
		H162.82c3.003-7.671,10.448-13.125,19.157-13.125c11.373,0,20.625,9.252,20.625,20.625c0,4.143,3.358,7.5,7.5,7.5h44.795
		c4.143,0,7.5-3.357,7.5-7.5c0-11.373,9.252-20.625,20.625-20.625c8.709,0,16.154,5.454,19.157,13.125h-19.157
		c-4.143,0-7.5,3.357-7.5,7.5s3.357,7.5,7.5,7.5h25.634c49.694,36.09,81.062,103.806,82.925,178.61H283.255v-5.67l54.103-23.187
		h28.461c4.143,0,7.5-3.357,7.5-7.5s-3.357-7.5-7.5-7.5h-22.5v-2.5c0-4.143-3.357-7.5-7.5-7.5s-7.5,3.357-7.5,7.5v5.055
		l-55.518,23.793c-2.758,1.182-4.546,3.894-4.546,6.894V450H200.31v-10.615c0-3-1.788-5.712-4.545-6.894l-55.518-23.793v-62.725
		c0-4.143-3.358-7.5-7.5-7.5s-7.5,3.357-7.5,7.5v60.17h-22.5c-4.142,0-7.5,3.357-7.5,7.5s3.358,7.5,7.5,7.5h28.46l54.103,23.187V450
		H73.419C75.282,375.196,106.649,307.479,156.343,271.39z M59.87,426.889c-0.782,7.618-1.267,15.331-1.452,23.111H19.172v-5.67
		L59.87,426.889z"/>
	<path d="M335.818,381.144c4.143,0,7.5-3.357,7.5-7.5v-27.67c0-4.143-3.357-7.5-7.5-7.5s-7.5,3.357-7.5,7.5v27.67
		C328.318,377.786,331.676,381.144,335.818,381.144z"/>
	<path d="M174.624,320.582c1.621,0,3.254-0.523,4.628-1.602l8.883-6.979h92.294l8.883,6.978c3.259,2.559,7.973,1.992,10.531-1.266
		c2.559-3.257,1.992-7.973-1.266-10.531l-10.922-8.579c-1.321-1.037-2.953-1.602-4.633-1.602h-97.481
		c-1.68,0-3.312,0.564-4.633,1.602l-10.923,8.581c-3.257,2.559-3.824,7.273-1.265,10.53
		C170.2,319.599,172.401,320.582,174.624,320.582z"/>
	<path d="M108.381,195.187h206.28c0.009,0,0.018,0.002,0.027,0.002c0.012,0,0.025-0.002,0.037-0.002h41.894
		c4.143,0,7.5-3.357,7.5-7.5s-3.357-7.5-7.5-7.5h-37.113l-16.494-36.163c1.163-1.321,1.874-3.05,1.874-4.949
		c0-4.143-3.357-7.5-7.5-7.5h-0.052L239.324,4.388C238.104,1.715,235.438,0,232.5,0s-5.604,1.715-6.824,4.388l-58.01,127.187h-0.053
		c-4.142,0-7.5,3.357-7.5,7.5c0,1.899,0.711,3.628,1.875,4.95l-16.494,36.163h-37.113c-4.142,0-7.5,3.357-7.5,7.5
		S104.239,195.187,108.381,195.187z M250.667,146.574v33.612h-36.333v-33.612H250.667z M265.667,180.187v-33.612h22.022
		l15.331,33.612H265.667z M232.5,25.573l48.348,106.001h-96.695L232.5,25.573z M177.311,146.574h22.022v33.612H161.98
		L177.311,146.574z"/>
</g>
</svg>